<svg width="15" height="13" viewBox="0 0 15 13" fill="none" xmlns="http://www.w3.org/2000/svg">
<path d="M0.857912 6.22782H12.8686L8.26949 1.84858C8.02867 1.61925 8.01934 1.23827 8.24872 0.997519C8.4778 0.75707 8.85889 0.74744 9.10001 0.976755L14.3524 5.97834C14.5796 6.20584 14.7051 6.50799 14.7051 6.82969C14.7051 7.15109 14.5796 7.45354 14.3418 7.69097L9.09972 12.6824C8.98322 12.7933 8.83391 12.8484 8.6846 12.8484C8.52566 12.8484 8.36672 12.7858 8.24842 12.6616C8.01904 12.4209 8.02837 12.0401 8.26919 11.8108L12.8875 7.43157H0.857912C0.525579 7.43157 0.255859 7.16193 0.255859 6.82969C0.255859 6.49746 0.525579 6.22782 0.857912 6.22782Z" fill="#1A1A1A"/>
</svg>
