<svg width="15" height="13" viewBox="0 0 15 13" fill="none" xmlns="http://www.w3.org/2000/svg">
<path d="M1.04737 5.42826H13.058L8.45895 1.04902C8.21812 0.819693 8.20879 0.438709 8.43817 0.197959C8.66725 -0.0424907 9.04835 -0.0521207 9.28947 0.177194L14.5418 5.17878C14.769 5.40628 14.8946 5.70843 14.8946 6.03013C14.8946 6.35153 14.769 6.65398 14.5312 6.89141L9.28917 11.8828C9.17268 11.9938 9.02337 12.0489 8.87406 12.0489C8.71511 12.0489 8.55617 11.9863 8.43787 11.862C8.20849 11.6213 8.21782 11.2406 8.45864 11.0113L13.077 6.63201H1.04737C0.715032 6.63201 0.445312 6.36237 0.445312 6.03013C0.445312 5.6979 0.715032 5.42826 1.04737 5.42826Z" fill="#E7C873"/>
</svg>
