<svg width="21" height="21" viewBox="0 0 21 21" fill="none" xmlns="http://www.w3.org/2000/svg">
<g clip-path="url(#clip0_3010_1204)">
<path d="M20.9203 10.2039C20.9203 9.715 20.7536 9.30389 20.4203 8.97055C20.087 8.63722 19.6758 8.47055 19.187 8.47055H4.05362V3.07055C4.05362 2.62611 4.20918 2.24833 4.52029 1.93722C4.74251 1.715 4.99807 1.58167 5.28695 1.53722C5.57584 1.49277 5.87584 1.515 6.18695 1.60389C5.78695 2.22611 5.6314 2.915 5.72029 3.67055C5.80918 4.42611 6.12029 5.07055 6.65362 5.60389L6.78695 5.80389C6.92029 5.89278 7.06473 5.93722 7.22029 5.93722C7.37584 5.93722 7.49807 5.89278 7.58696 5.80389L11.387 2.00389C11.5203 1.87055 11.587 1.72611 11.587 1.57055C11.587 1.415 11.5203 1.27055 11.387 1.13722L11.2536 1.00389C10.6758 0.426109 9.97584 0.114998 9.15362 0.0705528C8.3314 0.0261097 7.60918 0.248331 6.98696 0.737221C6.45362 0.426109 5.87584 0.303886 5.25362 0.370554C4.6314 0.43722 4.09807 0.692776 3.65362 1.13722C3.12029 1.67055 2.85362 2.315 2.85362 3.07055V8.47055H2.65362C2.16473 8.47055 1.75362 8.63722 1.42029 8.97055C1.08695 9.30389 0.920288 9.715 0.920288 10.2039C0.920288 10.6039 1.0314 10.9483 1.25362 11.2372C1.47584 11.5261 1.74251 11.7372 2.05362 11.8706V13.1372C2.05362 14.2039 2.34251 15.1817 2.92029 16.0706C3.49807 16.9594 4.2314 17.6483 5.12029 18.1372L4.58695 19.2039C4.49807 19.3817 4.48695 19.5372 4.55362 19.6706C4.62029 19.8039 4.72029 19.915 4.85362 20.0039C4.98696 20.0928 5.1314 20.1039 5.28695 20.0372C5.44251 19.9706 5.56473 19.8706 5.65362 19.7372L6.25362 18.5372C6.69807 18.6261 7.16473 18.6706 7.65362 18.6706H14.187C14.6758 18.6706 15.1425 18.6261 15.587 18.5372L16.187 19.7372C16.2758 19.8706 16.3981 19.9706 16.5536 20.0372C16.7092 20.1039 16.8536 20.0928 16.987 20.0039C17.1203 19.915 17.2203 19.8039 17.287 19.6706C17.3536 19.5372 17.3425 19.3817 17.2536 19.2039L16.7203 18.1372C17.6092 17.6483 18.3425 16.9594 18.9203 16.0706C19.4981 15.1817 19.787 14.2039 19.787 13.1372V11.8706C20.0981 11.7372 20.3647 11.5261 20.587 11.2372C20.8092 10.9483 20.9203 10.6039 20.9203 10.2039ZM10.1203 1.60389L7.25362 4.53722C6.94251 4.09278 6.80918 3.62611 6.85362 3.13722C6.89807 2.64833 7.09807 2.22611 7.45362 1.87055C7.80918 1.515 8.24251 1.315 8.75362 1.27055C9.26473 1.22611 9.72029 1.33722 10.1203 1.60389ZM2.65362 9.67055H19.187C19.3203 9.67055 19.4425 9.72611 19.5536 9.83722C19.6647 9.94833 19.7203 10.0817 19.7203 10.2372C19.7203 10.3928 19.6647 10.5261 19.5536 10.6372C19.4425 10.7483 19.3203 10.8039 19.187 10.8039H2.65362C2.52029 10.8039 2.39807 10.7483 2.28695 10.6372C2.17584 10.5261 2.12029 10.3928 2.12029 10.2372C2.12029 10.0817 2.17584 9.94833 2.28695 9.83722C2.39807 9.72611 2.52029 9.67055 2.65362 9.67055ZM18.587 13.1372C18.587 13.9372 18.387 14.6706 17.987 15.3372C17.587 16.0039 17.0536 16.5372 16.387 16.9372C15.7203 17.3372 14.987 17.5372 14.187 17.5372H7.65362C6.85362 17.5372 6.12029 17.3372 5.45362 16.9372C4.78695 16.5372 4.25362 16.0039 3.85362 15.3372C3.45362 14.6706 3.25362 13.9372 3.25362 13.1372V12.0039H18.587V13.1372ZM9.38696 6.00389C9.38696 6.18167 9.44251 6.32611 9.55362 6.43722C9.66473 6.54833 9.79807 6.60389 9.95362 6.60389C10.1092 6.60389 10.2425 6.54833 10.3536 6.43722C10.4647 6.32611 10.5203 6.18167 10.5203 6.00389C10.5203 5.82611 10.4647 5.68167 10.3536 5.57055C10.2425 5.45944 10.1092 5.40389 9.95362 5.40389C9.79807 5.40389 9.66473 5.45944 9.55362 5.57055C9.44251 5.68167 9.38696 5.82611 9.38696 6.00389ZM11.0536 4.33722C11.0536 4.515 11.1092 4.65944 11.2203 4.77055C11.3314 4.88167 11.4647 4.93722 11.6203 4.93722C11.7758 4.93722 11.9092 4.88167 12.0203 4.77055C12.1314 4.65944 12.187 4.515 12.187 4.33722C12.187 4.15944 12.1314 4.015 12.0203 3.90389C11.9092 3.79278 11.7758 3.73722 11.6203 3.73722C11.4647 3.73722 11.3314 3.79278 11.2203 3.90389C11.1092 4.015 11.0536 4.15944 11.0536 4.33722ZM11.4536 6.40389C11.4536 6.53722 11.5092 6.67055 11.6203 6.80389C11.7314 6.93722 11.8647 7.00389 12.0203 7.00389C12.1758 7.00389 12.3092 6.93722 12.4203 6.80389C12.5314 6.67055 12.587 6.52611 12.587 6.37055C12.587 6.215 12.5314 6.08167 12.4203 5.97055C12.3092 5.85944 12.1758 5.80389 12.0203 5.80389C11.8647 5.80389 11.7314 5.85944 11.6203 5.97055C11.5092 6.08167 11.4536 6.22611 11.4536 6.40389Z" fill="#1A1A1A"/>
</g>
<defs>
<clipPath id="clip0_3010_1204">
<rect width="20" height="20" fill="white" transform="matrix(1 0 0 -1 0.920288 20.0706)"/>
</clipPath>
</defs>
</svg>
