<svg width="17" height="17" viewBox="0 0 17 17" fill="none" xmlns="http://www.w3.org/2000/svg">
<path d="M16.4399 8.97649C16.4399 8.58538 16.3066 8.25649 16.0399 7.98982C15.7733 7.72316 15.4444 7.58982 15.0533 7.58982H2.94661V3.26982C2.94661 2.91427 3.07105 2.61204 3.31994 2.36316C3.49772 2.18538 3.70216 2.07871 3.93327 2.04316C4.16439 2.0076 4.40439 2.02538 4.65328 2.09649C4.33327 2.59427 4.20883 3.14538 4.27994 3.74982C4.35105 4.35427 4.59994 4.86982 5.02661 5.29649L5.13328 5.45649C5.23994 5.5276 5.3555 5.56316 5.47994 5.56316C5.60439 5.56316 5.70216 5.5276 5.77327 5.45649L8.81328 2.41649C8.91994 2.30982 8.97328 2.19427 8.97328 2.06982C8.97328 1.94538 8.91994 1.82982 8.81328 1.72316L8.70661 1.61649C8.24439 1.15427 7.68439 0.905377 7.02661 0.869822C6.36883 0.834267 5.79105 1.01204 5.29327 1.40316C4.86661 1.15427 4.40439 1.05649 3.90661 1.10982C3.40883 1.16316 2.98216 1.3676 2.62661 1.72316C2.19994 2.14982 1.98661 2.66538 1.98661 3.26982V7.58982H1.82661C1.4355 7.58982 1.10661 7.72316 0.839941 7.98982C0.573275 8.25649 0.439941 8.58538 0.439941 8.97649C0.439941 9.29649 0.52883 9.57204 0.706608 9.80316C0.884386 10.0343 1.09772 10.2032 1.34661 10.3098V11.3232C1.34661 12.1765 1.57772 12.9587 2.03994 13.6698C2.50216 14.3809 3.08883 14.932 3.79994 15.3232L3.37327 16.1765C3.30216 16.3187 3.29327 16.4432 3.34661 16.5498C3.39994 16.6565 3.47994 16.7454 3.58661 16.8165C3.69327 16.8876 3.80883 16.8965 3.93327 16.8432C4.05772 16.7898 4.1555 16.7098 4.22661 16.6032L4.70661 15.6432C5.06216 15.7143 5.4355 15.7498 5.82661 15.7498H11.0533C11.4444 15.7498 11.8177 15.7143 12.1733 15.6432L12.6533 16.6032C12.7244 16.7098 12.8222 16.7898 12.9466 16.8432C13.0711 16.8965 13.1866 16.8876 13.2933 16.8165C13.3999 16.7454 13.4799 16.6565 13.5333 16.5498C13.5866 16.4432 13.5777 16.3187 13.5066 16.1765L13.0799 15.3232C13.7911 14.932 14.3777 14.3809 14.8399 13.6698C15.3022 12.9587 15.5333 12.1765 15.5333 11.3232V10.3098C15.7822 10.2032 15.9955 10.0343 16.1733 9.80316C16.3511 9.57204 16.4399 9.29649 16.4399 8.97649ZM7.79994 2.09649L5.50661 4.44316C5.25772 4.0876 5.15105 3.71427 5.18661 3.32316C5.22216 2.93204 5.38216 2.59427 5.66661 2.30982C5.95105 2.02538 6.29772 1.86538 6.70661 1.82982C7.1155 1.79427 7.47994 1.88316 7.79994 2.09649ZM1.82661 8.54982H15.0533C15.1599 8.54982 15.2577 8.59427 15.3466 8.68316C15.4355 8.77204 15.4799 8.87871 15.4799 9.00316C15.4799 9.1276 15.4355 9.23427 15.3466 9.32316C15.2577 9.41204 15.1599 9.45649 15.0533 9.45649H1.82661C1.71994 9.45649 1.62216 9.41204 1.53327 9.32316C1.44439 9.23427 1.39994 9.1276 1.39994 9.00316C1.39994 8.87871 1.44439 8.77204 1.53327 8.68316C1.62216 8.59427 1.71994 8.54982 1.82661 8.54982ZM14.5733 11.3232C14.5733 11.9632 14.4133 12.5498 14.0933 13.0832C13.7733 13.6165 13.3466 14.0432 12.8133 14.3632C12.2799 14.6832 11.6933 14.8432 11.0533 14.8432H5.82661C5.18661 14.8432 4.59994 14.6832 4.06661 14.3632C3.53327 14.0432 3.10661 13.6165 2.78661 13.0832C2.46661 12.5498 2.30661 11.9632 2.30661 11.3232V10.4165H14.5733V11.3232ZM7.21327 5.61649C7.21327 5.75871 7.25772 5.87427 7.34661 5.96316C7.4355 6.05204 7.54216 6.09649 7.66661 6.09649C7.79105 6.09649 7.89772 6.05204 7.98661 5.96316C8.0755 5.87427 8.11994 5.75871 8.11994 5.61649C8.11994 5.47427 8.0755 5.35871 7.98661 5.26982C7.89772 5.18093 7.79105 5.13649 7.66661 5.13649C7.54216 5.13649 7.4355 5.18093 7.34661 5.26982C7.25772 5.35871 7.21327 5.47427 7.21327 5.61649ZM8.54661 4.28316C8.54661 4.42538 8.59105 4.54093 8.67994 4.62982C8.76883 4.71871 8.8755 4.76316 8.99994 4.76316C9.12439 4.76316 9.23105 4.71871 9.31994 4.62982C9.40883 4.54093 9.45327 4.42538 9.45327 4.28316C9.45327 4.14093 9.40883 4.02538 9.31994 3.93649C9.23105 3.8476 9.12439 3.80316 8.99994 3.80316C8.8755 3.80316 8.76883 3.8476 8.67994 3.93649C8.59105 4.02538 8.54661 4.14093 8.54661 4.28316ZM8.86661 5.93649C8.86661 6.04316 8.91105 6.14982 8.99994 6.25649C9.08883 6.36316 9.1955 6.41649 9.31994 6.41649C9.44439 6.41649 9.55105 6.36316 9.63994 6.25649C9.72883 6.14982 9.77328 6.03427 9.77328 5.90982C9.77328 5.78538 9.72883 5.67871 9.63994 5.58982C9.55105 5.50093 9.44439 5.45649 9.31994 5.45649C9.1955 5.45649 9.08883 5.50093 8.99994 5.58982C8.91105 5.67871 8.86661 5.79427 8.86661 5.93649Z" fill="white"/>
</svg>
