<svg width="21" height="14" viewBox="0 0 21 14" fill="none" xmlns="http://www.w3.org/2000/svg">
<path d="M18.5035 3.33726H9.70355C9.2591 3.33726 8.83688 3.47059 8.43688 3.73726C8.34799 3.07059 8.07022 2.52614 7.60355 2.10392C7.13688 1.6817 6.59244 1.47059 5.97022 1.47059C5.48133 1.47059 5.03688 1.5817 4.63688 1.80392V0.803922C4.63688 0.626144 4.58133 0.4817 4.47022 0.370588C4.3591 0.259478 4.21466 0.203922 4.03688 0.203922H1.57021C1.39244 0.203922 1.24799 0.259478 1.13688 0.370588C1.02577 0.4817 0.970215 0.626144 0.970215 0.803922V13.3373C0.970215 13.515 1.02577 13.6595 1.13688 13.7706C1.24799 13.8817 1.39244 13.9373 1.57021 13.9373H4.03688C4.21466 13.9373 4.3591 13.8817 4.47022 13.7706C4.58133 13.6595 4.63688 13.515 4.63688 13.3373V11.4039H17.3035V13.3373C17.3035 13.515 17.3591 13.6595 17.4702 13.7706C17.5813 13.8817 17.7258 13.9373 17.9035 13.9373H20.3702C20.548 13.9373 20.6924 13.8817 20.8035 13.7706C20.9147 13.6595 20.9702 13.515 20.9702 13.3373V5.80392C20.9702 5.13726 20.7258 4.55948 20.2369 4.07059C19.748 3.5817 19.1702 3.33726 18.5035 3.33726ZM5.97022 2.60392C6.32577 2.60392 6.62577 2.73726 6.87021 3.00392C7.11466 3.27059 7.23688 3.5817 7.23688 3.93725C7.23688 4.29281 7.11466 4.59281 6.87021 4.83726C6.62577 5.0817 6.32577 5.20392 5.97022 5.20392C5.61466 5.20392 5.30355 5.0817 5.03688 4.83726C4.77022 4.59281 4.63688 4.29281 4.63688 3.93725C4.63688 3.5817 4.77022 3.27059 5.03688 3.00392C5.30355 2.73726 5.61466 2.60392 5.97022 2.60392ZM4.63688 6.00392C5.03688 6.27059 5.47021 6.40392 5.93688 6.40392C6.40355 6.40392 6.83688 6.27059 7.23688 6.00392V7.73726H4.63688V6.00392ZM19.7702 12.7373H18.4369V10.8039C18.4369 10.6706 18.3813 10.5484 18.2702 10.4373C18.1591 10.3261 18.0369 10.2706 17.9035 10.2706H4.03688C3.90355 10.2706 3.78133 10.3261 3.67021 10.4373C3.5591 10.5484 3.50355 10.6706 3.50355 10.8039V12.7373H2.17021V1.40392H3.50355V8.33726C3.50355 8.47059 3.5591 8.60392 3.67021 8.73726C3.78133 8.87059 3.90355 8.93726 4.03688 8.93726H19.7702V12.7373ZM19.7702 7.73726H8.43688V5.80392C8.43688 5.44837 8.5591 5.14837 8.80355 4.90392C9.04799 4.65948 9.34799 4.53726 9.70355 4.53726H18.5035C18.8591 4.53726 19.1591 4.65948 19.4035 4.90392C19.648 5.14837 19.7702 5.44837 19.7702 5.80392V7.73726Z" fill="#1A1A1A"/>
</svg>
