<svg width="17" height="12" viewBox="0 0 17 12" fill="none" xmlns="http://www.w3.org/2000/svg">
<path d="M14.5066 2.88328H7.46665C7.11109 2.88328 6.77331 2.98995 6.45331 3.20328C6.3822 2.66995 6.15998 2.23439 5.78665 1.89661C5.41331 1.55884 4.97776 1.38995 4.47998 1.38995C4.08887 1.38995 3.73331 1.47884 3.41331 1.65661V0.856614C3.41331 0.714392 3.36887 0.598837 3.27998 0.509948C3.19109 0.421059 3.07554 0.376615 2.93331 0.376615H0.95998C0.817758 0.376615 0.702203 0.421059 0.613314 0.509948C0.524425 0.598837 0.47998 0.714392 0.47998 0.856614V10.8833C0.47998 11.0255 0.524425 11.1411 0.613314 11.2299C0.702203 11.3188 0.817758 11.3633 0.95998 11.3633H2.93331C3.07554 11.3633 3.19109 11.3188 3.27998 11.2299C3.36887 11.1411 3.41331 11.0255 3.41331 10.8833V9.33661H13.5466V10.8833C13.5466 11.0255 13.5911 11.1411 13.68 11.2299C13.7689 11.3188 13.8844 11.3633 14.0266 11.3633H16C16.1422 11.3633 16.2578 11.3188 16.3466 11.2299C16.4355 11.1411 16.48 11.0255 16.48 10.8833V4.85661C16.48 4.32328 16.2844 3.86106 15.8933 3.46995C15.5022 3.07884 15.04 2.88328 14.5066 2.88328ZM4.47998 2.29661C4.76442 2.29661 5.00443 2.40328 5.19998 2.61661C5.39554 2.82995 5.49331 3.07884 5.49331 3.36328C5.49331 3.64773 5.39554 3.88773 5.19998 4.08328C5.00443 4.27884 4.76442 4.37661 4.47998 4.37661C4.19554 4.37661 3.94665 4.27884 3.73331 4.08328C3.51998 3.88773 3.41331 3.64773 3.41331 3.36328C3.41331 3.07884 3.51998 2.82995 3.73331 2.61661C3.94665 2.40328 4.19554 2.29661 4.47998 2.29661ZM3.41331 5.01661C3.73331 5.22995 4.07998 5.33661 4.45331 5.33661C4.82665 5.33661 5.17331 5.22995 5.49331 5.01661V6.40328H3.41331V5.01661ZM15.52 10.4033H14.4533V8.85661C14.4533 8.74995 14.4089 8.65217 14.32 8.56328C14.2311 8.47439 14.1333 8.42995 14.0266 8.42995H2.93331C2.82665 8.42995 2.72887 8.47439 2.63998 8.56328C2.55109 8.65217 2.50665 8.74995 2.50665 8.85661V10.4033H1.43998V1.33661H2.50665V6.88328C2.50665 6.98995 2.55109 7.09661 2.63998 7.20328C2.72887 7.30995 2.82665 7.36328 2.93331 7.36328H15.52V10.4033ZM15.52 6.40328H6.45331V4.85661C6.45331 4.57217 6.55109 4.33217 6.74665 4.13661C6.9422 3.94106 7.1822 3.84328 7.46665 3.84328H14.5066C14.7911 3.84328 15.0311 3.94106 15.2266 4.13661C15.4222 4.33217 15.52 4.57217 15.52 4.85661V6.40328Z" fill="white"/>
</svg>
