<svg width="58" height="57" viewBox="0 0 58 57" fill="none" xmlns="http://www.w3.org/2000/svg">
<path d="M16.8743 41.4999C16.8743 40.9665 17.0748 40.4999 17.4759 40.0999C17.8769 39.6999 18.278 39.4999 18.679 39.4999H39.5333C39.9344 39.4999 40.3354 39.6999 40.7365 40.0999C41.1375 40.4999 41.338 40.9665 41.338 41.4999C41.338 42.0332 41.1375 42.4665 40.7365 42.7999C40.3354 43.1332 39.9344 43.2999 39.5333 43.2999H18.679C18.278 43.2999 17.8769 43.1332 17.4759 42.7999C17.0748 42.4665 16.8743 42.0332 16.8743 41.4999ZM37.1271 2.89988C34.8545 1.03321 32.1809 0.0998764 29.1062 0.0998764C26.0315 0.0998764 23.3579 1.03321 21.0853 2.89988L6.0461 14.4999C4.44192 15.8332 3.17195 17.3665 2.23618 19.0999C1.30041 20.8332 0.83252 22.6999 0.83252 24.6999V43.4999C0.83252 45.7665 1.43409 47.8999 2.63722 49.8999C3.84036 51.8999 5.44453 53.4999 7.44976 54.6999C9.45498 55.8999 11.6607 56.4999 14.067 56.4999H44.1454C46.5516 56.4999 48.7574 55.8999 50.7626 54.6999C52.7678 53.4999 54.372 51.8999 55.5751 49.8999C56.7783 47.8999 57.3798 45.7665 57.3798 43.4999V24.6999C57.3798 22.6999 56.9119 20.8332 55.9762 19.0999C55.0404 17.3665 53.7704 15.8332 52.1663 14.4999L37.1271 2.89988ZM23.291 5.89988C25.0289 4.56654 26.9673 3.89988 29.1062 3.89988C31.2451 3.89988 33.1835 4.56654 34.9213 5.89988L49.9605 17.4999C51.03 18.4332 51.8989 19.5332 52.5673 20.7999C53.2357 22.0665 53.5699 23.3665 53.5699 24.6999V43.4999C53.5699 46.0332 52.6341 48.1999 50.7626 49.9999C48.8911 51.7999 46.6853 52.6999 44.1454 52.6999H14.067C11.527 52.6999 9.3213 51.7999 7.44976 49.9999C5.57822 48.1999 4.64245 46.0332 4.64245 43.4999V24.6999C4.64245 23.3665 4.97665 22.0665 5.64506 20.7999C6.31347 19.5332 7.1824 18.4332 8.25185 17.4999L23.291 5.89988Z" fill="#1A1A1A"/>
</svg>
