<svg width="38" height="33" viewBox="0 0 38 33" fill="none" xmlns="http://www.w3.org/2000/svg">
<path d="M19.3172 30.5605H7.67329C7.00554 30.5605 6.46299 30.3424 6.04565 29.9063C5.6283 29.4701 5.41963 28.9745 5.41963 28.4194V13.5508L17.1887 3.67807C17.773 3.20227 18.4825 2.96438 19.3172 2.96438C20.1519 2.96438 20.8614 3.20227 21.4456 3.67807L36.3448 16.1677C36.5118 16.3263 36.7204 16.3858 36.9709 16.3461C37.2213 16.3065 37.4299 16.2073 37.5969 16.0487C37.7638 15.8901 37.8264 15.6919 37.7847 15.454C37.7429 15.2161 37.6386 15.0178 37.4717 14.8592L34.9676 12.8371V4.39176C34.9676 3.20227 34.5085 2.17138 33.5904 1.2991C32.6722 0.426805 31.5871 0.0104866 30.3351 0.0501328C29.083 0.0897827 28.0188 0.525928 27.1424 1.35857C26.266 2.19121 25.786 3.20227 25.7026 4.39176V5.10545L22.5725 2.48858C21.6543 1.69559 20.5692 1.2991 19.3172 1.2991C18.0652 1.2991 16.9801 1.69559 16.0619 2.48858L1.16272 14.8592C0.912313 15.0178 0.787109 15.2161 0.787109 15.454C0.787109 15.6919 0.870578 15.8901 1.03752 16.0487C1.20445 16.2073 1.41313 16.3065 1.66353 16.3461C1.91394 16.3858 2.12261 16.3263 2.28955 16.1677L3.66678 15.0971V28.4194C3.66678 29.4503 4.06326 30.3424 4.85622 31.0957C5.64917 31.8491 6.58819 32.2257 7.67329 32.2257H19.3172C19.5676 32.2257 19.7763 32.1465 19.9432 31.9879C20.1101 31.8293 20.1936 31.631 20.1936 31.3931C20.1936 31.1552 20.1101 30.957 19.9432 30.7984C19.7763 30.6398 19.5676 30.5605 19.3172 30.5605ZM27.4554 4.39176C27.5389 3.59877 27.8519 2.94455 28.3944 2.42911C28.937 1.91366 29.6047 1.67577 30.3977 1.71542C31.1906 1.75507 31.8584 2.03261 32.4009 2.54806C32.9435 3.0635 33.2148 3.67807 33.2148 4.39176V11.2908L27.4554 6.53284V4.39176ZM19.3172 8.43602C18.1486 8.43602 17.147 8.83251 16.3123 9.6255C15.4776 10.4185 15.0603 11.3701 15.0603 12.4803C15.0603 13.5905 15.4776 14.542 16.3123 15.335C17.147 16.128 18.1486 16.5245 19.3172 16.5245C20.4858 16.5245 21.4874 16.128 22.3221 15.335C23.1568 14.542 23.5741 13.5905 23.5741 12.4803C23.5741 11.3701 23.1568 10.4185 22.3221 9.6255C21.4874 8.83251 20.4858 8.43602 19.3172 8.43602ZM21.8213 12.4803C21.8213 13.194 21.5709 13.7689 21.07 14.205C20.5692 14.6412 19.9849 14.8592 19.3172 14.8592C18.6494 14.8592 18.0652 14.6412 17.5643 14.205C17.0635 13.7689 16.8131 13.2138 16.8131 12.5397C16.8131 11.8657 17.0635 11.2908 17.5643 10.815C18.0652 10.3392 18.6494 10.1013 19.3172 10.1013C19.9849 10.1013 20.5692 10.3392 21.07 10.815C21.5709 11.2908 21.8213 11.8459 21.8213 12.4803ZM37.5969 30.9173L34.592 27.9436C35.3432 26.9127 35.7188 25.7629 35.7188 24.4941C35.7188 22.9081 35.1137 21.56 33.9034 20.4498C32.6931 19.3396 31.2532 18.7846 29.5839 18.7846C27.9145 18.7846 26.4746 19.3396 25.2643 20.4498C24.0541 21.56 23.4489 22.9279 23.4489 24.5536C23.4489 26.1792 24.0541 27.5471 25.2643 28.6573C26.4746 29.7675 27.9145 30.3226 29.5839 30.3226C31.0028 30.3226 32.2549 29.9261 33.34 29.1331L36.2196 31.9879C36.3866 32.1465 36.5952 32.2456 36.8456 32.2852C37.0961 32.3249 37.3256 32.2654 37.5343 32.1068C37.7429 31.9482 37.8473 31.75 37.8473 31.5121C37.8473 31.2742 37.7638 31.0759 37.5969 30.9173ZM29.5839 28.6573C28.4153 28.6573 27.3928 28.2608 26.5164 27.4678C25.64 26.6748 25.2017 25.7034 25.2017 24.5536C25.2017 23.4037 25.64 22.4323 26.5164 21.6393C27.3928 20.8463 28.4362 20.4498 29.6465 20.4498C30.8568 20.4498 31.8793 20.8463 32.7139 21.6393C33.5486 22.4323 33.966 23.4037 33.966 24.5536C33.966 25.7034 33.5486 26.6748 32.7139 27.4678C31.8793 28.2608 30.8359 28.6573 29.5839 28.6573Z" fill="#1A1A1A"/>
</svg>
