<svg width="14" height="14" viewBox="0 0 14 14" fill="none" xmlns="http://www.w3.org/2000/svg">
<path d="M6.99985 4.00586C8.84555 4.00586 10.369 5.5293 10.369 7.375C10.369 9.25 8.84555 10.7441 6.99985 10.7441C5.12485 10.7441 3.63071 9.25 3.63071 7.375C3.63071 5.5293 5.12485 4.00586 6.99985 4.00586ZM6.99985 9.57227C8.20102 9.57227 9.16782 8.60547 9.16782 7.375C9.16782 6.17383 8.20102 5.20703 6.99985 5.20703C5.76938 5.20703 4.80259 6.17383 4.80259 7.375C4.80259 8.60547 5.79868 9.57227 6.99985 9.57227ZM11.2772 3.88867C11.2772 4.32812 10.9256 4.67969 10.4862 4.67969C10.0467 4.67969 9.69516 4.32812 9.69516 3.88867C9.69516 3.44922 10.0467 3.09766 10.4862 3.09766C10.9256 3.09766 11.2772 3.44922 11.2772 3.88867ZM13.5038 4.67969C13.5624 5.76367 13.5624 9.01562 13.5038 10.0996C13.4452 11.1543 13.2108 12.0625 12.4491 12.8535C11.6874 13.6152 10.7499 13.8496 9.69516 13.9082C8.61118 13.9668 5.35923 13.9668 4.27524 13.9082C3.22055 13.8496 2.31235 13.6152 1.52134 12.8535C0.759617 12.0625 0.525242 11.1543 0.466649 10.0996C0.408055 9.01562 0.408055 5.76367 0.466649 4.67969C0.525242 3.625 0.759617 2.6875 1.52134 1.92578C2.31235 1.16406 3.22055 0.929688 4.27524 0.871094C5.35923 0.8125 8.61118 0.8125 9.69516 0.871094C10.7499 0.929688 11.6874 1.16406 12.4491 1.92578C13.2108 2.6875 13.4452 3.625 13.5038 4.67969ZM12.0975 11.2422C12.4491 10.3926 12.3612 8.3418 12.3612 7.375C12.3612 6.4375 12.4491 4.38672 12.0975 3.50781C11.8631 2.95117 11.4237 2.48242 10.867 2.27734C9.98813 1.92578 7.93735 2.01367 6.99985 2.01367C6.03305 2.01367 3.98227 1.92578 3.13266 2.27734C2.54673 2.51172 2.10727 2.95117 1.8729 3.50781C1.52134 4.38672 1.60923 6.4375 1.60923 7.375C1.60923 8.3418 1.52134 10.3926 1.8729 11.2422C2.10727 11.8281 2.54673 12.2676 3.13266 12.502C3.98227 12.8535 6.03305 12.7656 6.99985 12.7656C7.93735 12.7656 9.98813 12.8535 10.867 12.502C11.4237 12.2676 11.8924 11.8281 12.0975 11.2422Z" fill="white"/>
<a href="https://www.figma.com/design/ul8jEv9u9rd9ObsGq7HY8f/justHome-example-1?node-id=2-2">
<rect fill="black" fill-opacity="0" x="-0.282375" y="-1.125" width="13.125" height="17.25"/>
</a>
</svg>
