<svg width="34" height="37" viewBox="0 0 34 37" fill="none" xmlns="http://www.w3.org/2000/svg">
<path d="M18.3188 22.1242C18.0684 22.1242 17.8597 22.0449 17.6928 21.8863C16.6077 20.9347 16.1069 19.7849 16.1903 18.4368C16.1903 17.4059 16.4407 16.4543 16.9415 15.582C17.025 15.3441 17.1711 15.2054 17.3798 15.1657C17.5884 15.1261 17.7971 15.1657 18.0058 15.2847C18.2144 15.4036 18.3396 15.5622 18.3814 15.7605C18.4231 15.9587 18.4023 16.1371 18.3188 16.2957C17.9849 16.6922 17.7762 17.2473 17.6928 17.961C17.5258 19.0712 17.9014 20.0228 18.8196 20.8158C19.07 21.0537 19.1326 21.3312 19.0074 21.6484C18.8822 21.9656 18.6109 22.1242 18.1936 22.1242H18.3188ZM4.42122 25.3358C3.50306 25.2565 2.71011 24.8997 2.04236 24.2653C1.29114 23.5516 0.915527 22.6595 0.915527 21.5889C0.915527 20.5184 1.29114 19.6263 2.04236 18.9126L9.93016 11.2999C10.264 11.062 10.5562 10.8637 10.8066 10.7051C11.057 10.5465 11.2865 10.5069 11.4952 10.5862C11.7039 10.6655 11.8499 10.7844 11.9334 10.943C12.0169 11.1016 12.0378 11.2801 11.996 11.4783C11.9543 11.6766 11.8291 11.8352 11.6204 11.9541C11.4117 12.073 11.2239 12.2118 11.057 12.3704L3.16919 19.9831C2.66837 20.3796 2.41797 20.9149 2.41797 21.5889C2.41797 22.263 2.66837 22.7983 3.16919 23.1948C3.41959 23.5119 3.75347 23.7102 4.17081 23.7895L6.54967 21.5295C6.71661 21.3709 6.92528 21.2916 7.17569 21.2916L8.30252 21.5295L8.92854 20.9347V19.0315C8.92854 18.8729 9.012 18.7143 9.17894 18.5558C9.34588 18.3972 9.51282 18.3179 9.67976 18.3179L11.8082 18.1989L14.5627 15.582L14.8131 15.3441C14.8966 15.1855 15.0426 15.0864 15.2513 15.0468C15.46 15.0071 15.6686 15.0468 15.8773 15.1657C16.086 15.2847 16.2112 15.4433 16.2529 15.6415C16.2947 15.8398 16.2321 16.0182 16.0651 16.1768L15.6895 16.6526L12.6846 19.5073C12.5177 19.6659 12.3508 19.7452 12.1838 19.7452H10.5562V21.2916C10.5562 21.5295 10.4727 21.6881 10.3058 21.7674L9.17894 22.9569C9.012 23.1155 8.80333 23.1551 8.55293 23.0758L7.4261 22.9569L5.04724 25.2169C4.8803 25.2962 4.67163 25.3358 4.42122 25.3358ZM18.5692 16.7715C17.0667 16.7715 15.6686 16.4543 14.3749 15.8199C13.0811 15.1855 12.0169 14.2934 11.1822 13.1436C10.3475 11.9937 9.86756 10.7051 9.74236 9.27776C9.61715 7.85037 9.84669 6.50229 10.431 5.2335C11.0153 3.96471 11.8917 2.914 13.0602 2.08136C14.2288 1.24872 15.5643 0.713451 17.0667 0.475555C17.3172 0.396255 17.5467 0.475555 17.7554 0.713451C17.964 0.951347 18.0266 1.20907 17.9432 1.48662C17.8597 1.76416 17.651 1.94259 17.3172 2.02188C15.4808 2.25978 13.9993 3.09243 12.8724 4.51981C11.7456 5.94719 11.3074 7.553 11.5578 9.33723C11.8082 11.1215 12.6429 12.5687 14.0619 13.6789C15.4808 14.789 17.1085 15.3045 18.9448 15.2252C20.7811 15.1459 22.3462 14.452 23.6399 13.1436C24.9337 11.8352 25.5806 10.3086 25.5806 8.56406C25.5806 7.45388 25.3302 6.42299 24.8294 5.4714C24.3285 4.51981 23.5773 3.72682 22.5757 3.09243C22.4088 2.93383 22.3253 2.7554 22.3253 2.55716C22.3253 2.35891 22.3879 2.18048 22.5131 2.02188C22.6383 1.86329 22.8052 1.76416 23.0139 1.72451C23.2226 1.68486 23.4104 1.74434 23.5773 1.90294C25.0798 2.93383 26.144 4.28191 26.77 5.94719C27.396 7.61247 27.4169 9.29758 26.8326 11.0025C26.2483 12.7074 25.205 14.0952 23.7025 15.1657C22.2001 16.2363 20.489 16.7715 18.5692 16.7715ZM20.322 2.02188C20.2386 2.02188 20.1342 2.00206 20.009 1.96241C19.8838 1.92276 19.7586 1.82364 19.6334 1.66504C19.5082 1.50644 19.4665 1.30819 19.5082 1.0703C19.5499 0.832401 19.7169 0.653976 20.009 0.535027C20.3012 0.41608 20.5724 0.45573 20.8228 0.653976C21.0733 0.852222 21.1567 1.0703 21.0733 1.30819C20.9898 1.54609 20.8854 1.72451 20.7602 1.84346C20.635 1.96241 20.4472 2.02188 20.1968 2.02188H20.322ZM19.696 9.99145C18.7779 9.99145 18.0266 9.7139 17.4424 9.15881C16.8581 8.60371 16.5659 7.90985 16.5659 7.07721C16.5659 6.24456 16.8581 5.53087 17.4424 4.93613C18.0266 4.34138 18.757 4.04401 19.6334 4.04401C20.5098 4.04401 21.2611 4.34138 21.8871 4.93613C22.5131 5.53087 22.8261 6.24456 22.8261 7.07721C22.8261 7.90985 22.5131 8.60371 21.8871 9.15881C21.2611 9.7139 20.5307 9.99145 19.696 9.99145ZM19.696 5.59035C19.2787 5.59035 18.9031 5.72912 18.5692 6.00667C18.2353 6.28421 18.0684 6.62123 18.0684 7.01773C18.0684 7.41423 18.2353 7.77107 18.5692 8.08827C18.9031 8.40547 19.2787 8.56406 19.696 8.56406C20.1134 8.56406 20.4681 8.40547 20.7602 8.08827C21.0524 7.77107 21.1985 7.41423 21.1985 7.01773C21.1985 6.62123 21.0524 6.28421 20.7602 6.00667C20.4681 5.72912 20.1134 5.59035 19.696 5.59035ZM29.8375 36.1602C29.6705 36.1602 29.5036 36.0809 29.3367 35.9223C29.1697 35.7637 29.0863 35.6051 29.0863 35.4465V27.0011V26.6443C29.0028 26.4064 29.0445 26.1883 29.2115 25.99C29.3784 25.7918 29.5871 25.7323 29.8375 25.8116H30.7139L22.3253 19.2694L13.8115 25.6927H14.6879C15.0218 25.6927 15.2513 25.7918 15.3765 25.99C15.5017 26.1883 15.5643 26.4064 15.5643 26.6443L15.4391 27.0011V35.4465C15.4391 35.6051 15.3765 35.7637 15.2513 35.9223C15.1261 36.0809 14.9383 36.1602 14.6879 36.1602C14.4375 36.1602 14.2497 36.0809 14.1245 35.9223C13.9993 35.7637 13.9367 35.6051 13.9367 35.4465V27.239H11.5578C11.2239 27.239 10.9944 27.0804 10.8692 26.7632C10.744 26.446 10.8066 26.1685 11.057 25.9306L21.8245 17.7231C21.9079 17.6438 22.054 17.6042 22.2627 17.6042C22.4714 17.6042 22.6592 17.6438 22.8261 17.7231L33.4684 25.9306C33.7188 26.1685 33.7814 26.446 33.6562 26.7632C33.531 27.0804 33.3014 27.239 32.9676 27.239H30.7139V35.4465C30.7139 35.6051 30.6304 35.7637 30.4635 35.9223C30.2966 36.0809 30.0879 36.1602 29.8375 36.1602ZM22.3253 24.3842C22.1583 24.3842 21.9914 24.3049 21.8245 24.1463C21.6575 23.9877 21.5741 23.8093 21.5741 23.6111C21.5741 23.4128 21.6575 23.2344 21.8245 23.0758C24.6624 20.6968 25.9562 18.2782 25.7058 15.8199C25.4554 13.8375 24.3285 11.8946 22.3253 9.99145C21.3237 9.03986 20.322 8.28652 19.3204 7.73142C18.9865 7.57282 18.8196 7.33493 18.8196 7.01773C18.8196 6.70053 18.9657 6.48246 19.2578 6.36351C19.5499 6.24456 19.8212 6.26439 20.0716 6.42299C21.2402 7.05738 22.367 7.92967 23.4521 9.03986C25.7058 11.1809 26.9578 13.3617 27.2082 15.582C27.5421 18.5954 26.0814 21.4898 22.8261 24.2653C22.7426 24.3446 22.5757 24.3842 22.3253 24.3842ZM24.3285 35.9223C24.1616 35.9223 23.9947 35.8628 23.8277 35.7438C23.6608 35.6249 23.5773 35.4465 23.5773 35.2086V30.6885C23.5773 30.3713 23.473 30.1136 23.2643 29.9154C23.0556 29.7171 22.7844 29.618 22.4505 29.618H21.5741C21.2402 29.618 20.9689 29.7171 20.7602 29.9154C20.5516 30.1136 20.4472 30.3713 20.4472 30.6885V35.2086C20.4472 35.4465 20.3638 35.6249 20.1968 35.7438C20.0299 35.8628 19.8421 35.9223 19.6334 35.9223C19.4247 35.9223 19.2369 35.8628 19.07 35.7438C18.9031 35.6249 18.8196 35.4465 18.8196 35.2086V30.6885C18.8196 29.9748 19.0909 29.3603 19.6334 28.8448C20.176 28.3294 20.8228 28.0716 21.5741 28.0716H22.4505C23.2017 28.0716 23.8486 28.3294 24.3911 28.8448C24.9337 29.3603 25.1632 29.9748 25.0798 30.6885V35.2086C25.1632 35.4465 25.1215 35.6249 24.9546 35.7438C24.7876 35.8628 24.5789 35.9223 24.3285 35.9223Z" fill="#1A1A1A"/>
</svg>
