<svg width="39" height="28" viewBox="0 0 39 28" fill="none" xmlns="http://www.w3.org/2000/svg">
<path d="M14.8098 18.2587C14.8098 18.4966 14.8933 18.675 15.0602 18.7939C15.2271 18.9129 15.3941 18.9724 15.561 18.9724C15.728 18.9724 15.8949 18.9129 16.0618 18.7939C16.2288 18.675 16.3122 18.5164 16.3122 18.3182C16.3122 18.1199 16.2288 17.9613 16.0618 17.8424C15.8949 17.7234 15.728 17.6639 15.561 17.6639C15.3941 17.6639 15.2271 17.7234 15.0602 17.8424C14.8933 17.9613 14.8098 18.1001 14.8098 18.2587ZM18.5659 18.2587C18.5659 18.4966 18.6494 18.675 18.8163 18.7939C18.9832 18.9129 19.1502 18.9724 19.3171 18.9724C19.484 18.9724 19.651 18.9129 19.8179 18.7939C19.9849 18.675 20.0683 18.5164 20.0683 18.3182C20.0683 18.1199 19.9849 17.9613 19.8179 17.8424C19.651 17.7234 19.484 17.6639 19.3171 17.6639C19.1502 17.6639 18.9832 17.7234 18.8163 17.8424C18.6494 17.9613 18.5659 18.1001 18.5659 18.2587ZM22.322 18.2587C22.322 18.4966 22.4055 18.675 22.5724 18.7939C22.7393 18.9129 22.9063 18.9724 23.0732 18.9724C23.2401 18.9724 23.4071 18.9129 23.574 18.7939C23.741 18.675 23.8244 18.5164 23.8244 18.3182C23.8244 18.1199 23.741 17.9613 23.574 17.8424C23.4071 17.7234 23.2401 17.6639 23.0732 17.6639C22.9063 17.6639 22.7393 17.7234 22.5724 17.8424C22.4055 17.9613 22.322 18.1001 22.322 18.2587ZM7.548 18.9724C6.54638 18.9724 5.62822 18.7146 4.79353 18.1992C3.95884 17.6838 3.35369 16.9899 2.97808 16.1176C2.60247 15.2453 2.51901 14.3334 2.72768 13.3818C2.93635 12.4302 3.39543 11.6174 4.10491 10.9433C4.8144 10.2693 5.64909 9.85297 6.60898 9.69437C7.56887 9.53578 8.5079 9.6349 9.42605 9.99174C10.3442 10.3486 11.0954 10.9235 11.6797 11.7165C12.264 12.5095 12.5561 13.3818 12.5561 14.3334C12.5561 15.6022 12.0762 16.6925 11.1163 17.6045C10.1564 18.5164 8.96697 18.9724 7.548 18.9724ZM7.548 11.0028C6.88025 11.0028 6.25424 11.1812 5.66996 11.5381C5.08567 11.8949 4.64746 12.3905 4.35532 13.0249C4.06318 13.6593 4.00058 14.3135 4.16752 14.9876C4.33445 15.6616 4.66833 16.2167 5.16914 16.6529C5.66996 17.089 6.25424 17.3864 6.92199 17.545C7.58974 17.7036 8.25749 17.6441 8.92524 17.3666C9.59299 17.089 10.1147 16.6727 10.4903 16.1176C10.8659 15.5625 11.0537 14.9678 11.0537 14.3334C11.0537 13.3818 10.7198 12.5888 10.0521 11.9544C9.38432 11.32 8.54963 11.0028 7.548 11.0028ZM13.9334 27.4177H1.28784C1.03743 27.4177 0.849629 27.3583 0.724426 27.2393C0.599223 27.1204 0.536621 26.9419 0.536621 26.704V24.3251C0.536621 22.5012 1.22524 20.935 2.60247 19.6266C3.97971 18.3182 5.64909 17.6639 7.61061 17.6639C9.57212 17.6639 11.2206 18.3182 12.5561 19.6266C13.8916 20.935 14.6011 22.5012 14.6846 24.3251V26.704C14.6846 26.9419 14.6011 27.1204 14.4342 27.2393C14.2672 27.3583 14.1003 27.4177 13.9334 27.4177ZM2.03906 25.9903H13.1822V24.3251C13.1822 22.8977 12.6396 21.6685 11.5545 20.6377C10.4694 19.6068 9.15478 19.0913 7.61061 19.0913C6.06643 19.0913 4.7518 19.6068 3.6667 20.6377C2.58161 21.6685 2.03906 22.8977 2.03906 24.3251V25.9903ZM31.0862 18.9724C30.0846 18.9724 29.1664 18.7146 28.3317 18.1992C27.4971 17.6838 26.8919 16.9899 26.5163 16.1176C26.1407 15.2453 26.0364 14.3334 26.2033 13.3818C26.3702 12.4302 26.8084 11.6174 27.5179 10.9433C28.2274 10.2693 29.083 9.85297 30.0846 9.69437C31.0862 9.53578 32.0461 9.6349 32.9643 9.99174C33.8824 10.3486 34.6128 10.9235 35.1553 11.7165C35.6979 12.5095 35.9691 13.3818 35.9691 14.3334C35.9691 15.6022 35.4892 16.6925 34.5293 17.6045C33.5694 18.5164 32.4217 18.9724 31.0862 18.9724ZM31.0862 11.0028C30.335 11.0028 29.6672 11.1812 29.083 11.5381C28.4987 11.8949 28.0813 12.3905 27.8309 13.0249C27.5805 13.6593 27.5179 14.3135 27.6431 14.9876C27.7683 15.6616 28.0813 16.2167 28.5822 16.6529C29.083 17.089 29.6881 17.3864 30.3976 17.545C31.1071 17.7036 31.7748 17.6441 32.4009 17.3666C33.0269 17.089 33.5277 16.6727 33.9033 16.1176C34.2789 15.5625 34.4667 14.9678 34.4667 14.3334C34.4667 13.3818 34.1328 12.5888 33.4651 11.9544C32.7973 11.32 32.0044 11.0028 31.0862 11.0028ZM37.3464 27.4177H24.7009C24.5339 27.4177 24.367 27.3583 24.2 27.2393C24.0331 27.1204 23.9496 26.9419 23.9496 26.704V24.3251C24.0331 22.5012 24.7426 20.935 26.0781 19.6266C27.4136 18.3182 29.0621 17.6639 31.0236 17.6639C32.9851 17.6639 34.6545 18.3182 36.0317 19.6266C37.409 20.935 38.0976 22.5012 38.0976 24.3251V26.704C38.0976 26.9419 38.035 27.1204 37.9098 27.2393C37.7846 27.3583 37.5968 27.4177 37.3464 27.4177ZM25.4521 25.9903H36.5952V24.3251C36.5952 22.8977 36.0526 21.6685 34.9675 20.6377C33.8824 19.6068 32.5678 19.0913 31.0236 19.0913C29.4794 19.0913 28.1648 19.6068 27.0797 20.6377C25.9946 21.6685 25.4521 22.8977 25.4521 24.3251V25.9903ZM15.9366 14.0955C15.7697 14.0955 15.6027 14.036 15.4358 13.9171C15.2689 13.7981 15.1854 13.6593 15.1854 13.5007V11.3597H14.5594C13.8916 11.3597 13.3074 11.1416 12.8065 10.7054C12.3057 10.2693 12.0553 9.73402 12.0553 9.09963V2.31956C12.0553 1.68516 12.3057 1.14989 12.8065 0.713751C13.3074 0.277605 13.8916 0.0595322 14.5594 0.0595322H23.9496C24.6174 0.0595322 25.1808 0.277605 25.6399 0.713751C26.099 1.14989 26.3285 1.68516 26.3285 2.31956V9.09963C26.3285 9.73402 26.099 10.2693 25.6399 10.7054C25.1808 11.1416 24.6174 11.3597 23.9496 11.3597H19.1919L16.4374 13.9765C16.354 14.1351 16.187 14.1748 15.9366 14.0955ZM14.5594 1.48692C14.309 1.48692 14.0794 1.56622 13.8708 1.72481C13.6621 1.88341 13.5578 2.08166 13.5578 2.31956V9.09963C13.5578 9.33753 13.6621 9.5556 13.8708 9.75385C14.0794 9.9521 14.309 10.0512 14.5594 10.0512H15.9366C16.187 10.0512 16.3748 10.1107 16.5 10.2296C16.6252 10.3486 16.6878 10.4874 16.6878 10.646V11.7165L18.3155 10.1702C18.4824 10.0909 18.6494 10.0512 18.8163 10.0512H23.9496C24.2 10.0512 24.4296 9.9521 24.6383 9.75385C24.8469 9.5556 24.9513 9.33753 24.9513 9.09963V2.31956C24.9513 2.08166 24.8469 1.88341 24.6383 1.72481C24.4296 1.56622 24.2 1.48692 23.9496 1.48692H14.5594Z" fill="#1A1A1A"/>
</svg>
