<svg width="21" height="21" viewBox="0 0 21 21" fill="none" xmlns="http://www.w3.org/2000/svg">
<g clip-path="url(#clip0_3010_1195)">
<path d="M16.2736 3.22376C15.4292 2.42376 14.4847 1.80154 13.4403 1.3571C12.3959 0.912651 11.2959 0.690428 10.1403 0.690428C8.98474 0.690428 7.87363 0.912651 6.80697 1.3571C5.7403 1.80154 4.80697 2.42376 4.00697 3.22376C3.20697 4.02376 2.58474 4.9571 2.1403 6.02376C1.69586 7.09043 1.47363 8.20154 1.47363 9.3571C1.47363 10.5127 1.69586 11.6127 2.1403 12.6571C2.58474 13.7015 3.20697 14.646 4.00697 15.4904L8.60697 20.0904C9.00697 20.4904 9.50697 20.6904 10.107 20.6904C10.707 20.6904 11.2292 20.4904 11.6736 20.0904L16.2736 15.4904C17.0736 14.646 17.6959 13.7015 18.1403 12.6571C18.5847 11.6127 18.807 10.5127 18.807 9.3571C18.807 8.20154 18.5847 7.09043 18.1403 6.02376C17.6959 4.9571 17.0736 4.02376 16.2736 3.22376ZM15.407 14.6238L10.807 19.2238C10.6292 19.4015 10.407 19.4904 10.1403 19.4904C9.87363 19.4904 9.62919 19.4015 9.40697 19.2238L4.80697 14.6238C4.09586 13.9127 3.56252 13.1015 3.20697 12.1904C2.85141 11.2793 2.67363 10.3238 2.67363 9.32376C2.67363 8.32376 2.85141 7.36821 3.20697 6.4571C3.56252 5.54598 4.09586 4.74598 4.80697 4.05709C5.51808 3.36821 6.32919 2.83487 7.2403 2.4571C8.15141 2.07932 9.10697 1.89043 10.107 1.89043C11.107 1.89043 12.0625 2.07932 12.9736 2.4571C13.8847 2.83487 14.6959 3.3571 15.407 4.02376C16.3847 5.00154 17.0403 6.13487 17.3736 7.42376C17.707 8.71265 17.707 10.0015 17.3736 11.2904C17.0403 12.5793 16.3847 13.6904 15.407 14.6238ZM10.1403 6.22376C9.29586 6.22376 8.56252 6.53487 7.9403 7.1571C7.31808 7.77932 7.00697 8.51265 7.00697 9.3571C7.00697 10.2015 7.31808 10.9238 7.9403 11.5238C8.56252 12.1238 9.29586 12.4238 10.1403 12.4238C10.9847 12.4238 11.707 12.1238 12.307 11.5238C12.907 10.9238 13.207 10.2015 13.207 9.3571C13.207 8.51265 12.907 7.77932 12.307 7.1571C11.707 6.53487 10.9847 6.22376 10.1403 6.22376ZM10.1403 11.2904C9.60697 11.2904 9.15141 11.1015 8.77363 10.7238C8.39586 10.346 8.20697 9.89043 8.20697 9.3571C8.20697 8.82376 8.39586 8.36821 8.77363 7.99043C9.15141 7.61265 9.60697 7.42376 10.1403 7.42376C10.6736 7.42376 11.1292 7.61265 11.507 7.99043C11.8847 8.36821 12.0736 8.82376 12.0736 9.3571C12.0736 9.89043 11.8847 10.346 11.507 10.7238C11.1292 11.1015 10.6736 11.2904 10.1403 11.2904Z" fill="#1A1A1A"/>
</g>
<defs>
<clipPath id="clip0_3010_1195">
<rect width="20" height="20" fill="white" transform="matrix(1 0 0 -1 0.140259 20.6904)"/>
</clipPath>
</defs>
</svg>
