<svg width="18" height="21" viewBox="0 0 18 21" fill="none" xmlns="http://www.w3.org/2000/svg">
<path d="M15.1335 3.20325C14.2891 2.40325 13.3446 1.78103 12.3002 1.33659C11.2557 0.892143 10.1557 0.66992 9.00016 0.66992C7.84461 0.66992 6.7335 0.892143 5.66683 1.33659C4.60016 1.78103 3.66683 2.40325 2.86683 3.20325C2.06683 4.00325 1.44461 4.93659 1.00016 6.00325C0.555718 7.06992 0.333496 8.18103 0.333496 9.33659C0.333496 10.4921 0.555718 11.5921 1.00016 12.6366C1.44461 13.681 2.06683 14.6255 2.86683 15.4699L7.46683 20.0699C7.86683 20.4699 8.36683 20.6699 8.96683 20.6699C9.56683 20.6699 10.0891 20.4699 10.5335 20.0699L15.1335 15.4699C15.9335 14.6255 16.5557 13.681 17.0002 12.6366C17.4446 11.5921 17.6668 10.4921 17.6668 9.33659C17.6668 8.18103 17.4446 7.06992 17.0002 6.00325C16.5557 4.93659 15.9335 4.00325 15.1335 3.20325ZM14.2668 14.6033L9.66683 19.2033C9.48905 19.381 9.26683 19.4699 9.00016 19.4699C8.7335 19.4699 8.48905 19.381 8.26683 19.2033L3.66683 14.6033C2.95572 13.8921 2.42239 13.081 2.06683 12.1699C1.71127 11.2588 1.5335 10.3033 1.5335 9.30326C1.5335 8.30325 1.71127 7.3477 2.06683 6.43659C2.42239 5.52548 2.95572 4.72548 3.66683 4.03659C4.37794 3.3477 5.18905 2.81437 6.10016 2.43659C7.01127 2.05881 7.96683 1.86992 8.96683 1.86992C9.96683 1.86992 10.9224 2.05881 11.8335 2.43659C12.7446 2.81437 13.5557 3.33659 14.2668 4.00325C15.2446 4.98103 15.9002 6.11437 16.2335 7.40325C16.5668 8.69214 16.5668 9.98103 16.2335 11.2699C15.9002 12.5588 15.2446 13.6699 14.2668 14.6033ZM9.00016 6.20325C8.15572 6.20325 7.42239 6.51437 6.80016 7.13659C6.17794 7.75881 5.86683 8.49214 5.86683 9.33659C5.86683 10.181 6.17794 10.9033 6.80016 11.5033C7.42239 12.1033 8.15572 12.4033 9.00016 12.4033C9.84461 12.4033 10.5668 12.1033 11.1668 11.5033C11.7668 10.9033 12.0668 10.181 12.0668 9.33659C12.0668 8.49214 11.7668 7.75881 11.1668 7.13659C10.5668 6.51437 9.84461 6.20325 9.00016 6.20325ZM9.00016 11.2699C8.46683 11.2699 8.01127 11.081 7.6335 10.7033C7.25572 10.3255 7.06683 9.86992 7.06683 9.33659C7.06683 8.80325 7.25572 8.3477 7.6335 7.96992C8.01127 7.59214 8.46683 7.40325 9.00016 7.40325C9.5335 7.40325 9.98905 7.59214 10.3668 7.96992C10.7446 8.3477 10.9335 8.80325 10.9335 9.33659C10.9335 9.86992 10.7446 10.3255 10.3668 10.7033C9.98905 11.081 9.5335 11.2699 9.00016 11.2699Z" fill="white"/>
</svg>
