<svg width="19" height="21" viewBox="0 0 19 21" fill="none" xmlns="http://www.w3.org/2000/svg">
<path d="M3.73509 20.4198C4.2515 20.419 4.75851 20.2816 5.20469 20.0216L17.2299 13.0652C17.6767 12.8072 18.0477 12.4362 18.3057 11.9894C18.5636 11.5426 18.6995 11.0357 18.6995 10.5198C18.6995 10.0039 18.5636 9.497 18.3057 9.05019C18.0477 8.60338 17.6767 8.23234 17.2299 7.97437L5.20469 1.02677C4.75784 0.771602 4.25187 0.638122 3.73729 0.639662C3.22272 0.641192 2.71755 0.777702 2.27223 1.03554C1.82692 1.29338 1.45703 1.66353 1.19951 2.10903C0.942001 2.55453 0.805861 3.0598 0.804691 3.57437V17.4652C0.803511 18.245 1.1111 18.9935 1.66022 19.5472C2.20934 20.1008 2.95532 20.4146 3.73509 20.4198ZM2.33369 3.57437C2.33186 3.32804 2.39572 3.08568 2.51868 2.87223C2.64165 2.65878 2.81928 2.48196 3.03329 2.35997C3.24604 2.23611 3.48781 2.17085 3.73399 2.17085C3.98017 2.17085 4.22195 2.23611 4.43469 2.35997L16.4665 9.30757C16.6784 9.43061 16.8542 9.60717 16.9765 9.81947C17.0987 10.0319 17.1631 10.2726 17.1631 10.5176C17.1631 10.7626 17.0987 11.0033 16.9765 11.2157C16.8542 11.428 16.6784 11.6046 16.4665 11.7276L4.43469 18.6796C4.22162 18.8024 3.98001 18.8669 3.73411 18.8667C3.48821 18.8665 3.24668 18.8017 3.03379 18.6786C2.8209 18.5556 2.64413 18.3787 2.52124 18.1657C2.39835 17.9527 2.33367 17.7111 2.33369 17.4652V3.57437Z" fill="white"/>
</svg>
