<svg width="41" height="41" viewBox="0 0 41 41" fill="none" xmlns="http://www.w3.org/2000/svg">
<rect x="1.28003" y="0.879999" width="39" height="39" rx="19.5" fill="white"/>
<rect x="1.28003" y="0.879999" width="39" height="39" rx="19.5" stroke="#1A1A1A"/>
<g clip-path="url(#clip0_3010_1182)">
<path d="M20.695 18.6133C21.7617 18.6133 22.6683 18.2311 23.415 17.4667C24.1617 16.7022 24.535 15.7867 24.535 14.72C24.535 13.6533 24.1617 12.7467 23.415 12C22.6683 11.2533 21.7617 10.88 20.695 10.88C19.6283 10.88 18.7217 11.2533 17.975 12C17.2283 12.7467 16.855 13.6533 16.855 14.72C16.855 15.7867 17.2283 16.7022 17.975 17.4667C18.7217 18.2311 19.6283 18.6133 20.695 18.6133ZM18.615 12.6933C19.1839 12.1244 19.8683 11.84 20.6683 11.84C21.4683 11.84 22.1617 12.1244 22.7483 12.6933C23.335 13.2622 23.6283 13.9467 23.6283 14.7467C23.6283 15.5467 23.3439 16.2311 22.775 16.8C22.2061 17.3689 21.5128 17.6533 20.695 17.6533C19.8772 17.6533 19.1839 17.3689 18.615 16.8C18.0461 16.2311 17.7617 15.5467 17.7617 14.7467C17.7617 13.9467 18.0461 13.2622 18.615 12.6933ZM27.415 23.2C27.415 22.88 27.3795 22.5333 27.3083 22.16C27.2372 21.7867 27.1483 21.4489 27.0417 21.1467C26.935 20.8444 26.7928 20.5333 26.615 20.2133C26.4372 19.8933 26.2328 19.6178 26.0017 19.3867C25.7706 19.1556 25.4772 18.9689 25.1217 18.8267C24.7661 18.6844 24.375 18.6133 23.9483 18.6133C23.8061 18.6133 23.5928 18.7022 23.3083 18.88L22.6683 19.3067C22.455 19.4489 22.1706 19.5733 21.815 19.68C21.4595 19.7867 21.1128 19.84 20.775 19.84C20.4372 19.84 20.0906 19.7867 19.735 19.68C19.3795 19.5733 19.1128 19.4489 18.935 19.3067L18.2417 18.88C17.9928 18.7022 17.7972 18.6133 17.655 18.6133C17.2283 18.6133 16.8372 18.6844 16.4817 18.8267C16.1261 18.9689 15.8239 19.1556 15.575 19.3867C15.3261 19.6178 15.1128 19.8933 14.935 20.2133C14.7572 20.5333 14.615 20.8533 14.5083 21.1733C14.4017 21.4933 14.3217 21.8311 14.2683 22.1867C14.215 22.5422 14.1795 22.8711 14.1617 23.1733C14.1439 23.4756 14.135 23.7867 14.135 24.1067C14.135 24.96 14.3928 25.6356 14.9083 26.1333C15.4239 26.6311 16.1083 26.88 16.9617 26.88H24.6417C25.4595 26.88 26.135 26.6311 26.6683 26.1333C27.2017 25.6356 27.4683 24.96 27.4683 24.1067C27.4683 23.7867 27.4506 23.4844 27.415 23.2ZM26.0283 25.44C25.6728 25.76 25.2106 25.92 24.6417 25.92H16.9617C16.3572 25.92 15.8861 25.76 15.5483 25.44C15.2106 25.12 15.0417 24.6756 15.0417 24.1067L15.095 23.2533C15.095 22.9689 15.1306 22.6667 15.2017 22.3467C15.2728 22.0267 15.3439 21.7333 15.415 21.4667C15.4861 21.2 15.5928 20.9422 15.735 20.6933C15.8772 20.4444 16.0372 20.24 16.215 20.08C16.3928 19.92 16.5972 19.7956 16.8283 19.7067C17.0595 19.6178 17.2995 19.5733 17.5483 19.5733L18.4017 20.1067C18.6861 20.2844 19.0417 20.4356 19.4683 20.56C19.895 20.6844 20.3306 20.7467 20.775 20.7467C21.2195 20.7467 21.6639 20.6844 22.1083 20.56C22.5528 20.4356 22.8995 20.2844 23.1483 20.1067L24.0017 19.5733C24.2861 19.5733 24.5439 19.6178 24.775 19.7067C25.0061 19.7956 25.2017 19.92 25.3617 20.08C25.5217 20.24 25.6728 20.4444 25.815 20.6933C25.9572 20.9422 26.0728 21.2 26.1617 21.4667C26.2506 21.7333 26.3217 22.0267 26.375 22.3467C26.4283 22.6667 26.4728 22.9689 26.5083 23.2533V24.1067C26.5083 24.6756 26.3483 25.12 26.0283 25.44Z" fill="#1A1A1A"/>
</g>
<defs>
<clipPath id="clip0_3010_1182">
<rect width="15.95" height="16" fill="white" transform="matrix(1 0 0 -1 12.8 26.88)"/>
</clipPath>
</defs>
</svg>
