<svg width="21" height="21" viewBox="0 0 21 21" fill="none" xmlns="http://www.w3.org/2000/svg">
<path d="M20.78 19.5867L15.8466 14.72C16.4689 13.9645 16.9578 13.1311 17.3133 12.22C17.6689 11.3089 17.8466 10.3422 17.8466 9.32001C17.8466 7.8089 17.4689 6.4089 16.7133 5.12001C15.9578 3.83112 14.9355 2.8089 13.6466 2.05335C12.3578 1.29779 10.9466 0.920012 9.41331 0.920012C7.87998 0.920012 6.46887 1.29779 5.17998 2.05335C3.89109 2.8089 2.86887 3.83112 2.11331 5.12001C1.35776 6.4089 0.97998 7.82001 0.97998 9.35335C0.97998 10.8867 1.35776 12.2978 2.11331 13.5867C2.86887 14.8756 3.89109 15.8978 5.17998 16.6533C6.46887 17.4089 7.86887 17.7867 9.37998 17.7867C10.4022 17.7867 11.3689 17.6089 12.28 17.2533C13.1911 16.8978 14.0244 16.4089 14.78 15.7867L19.6466 20.72C19.8244 20.8533 20.0133 20.92 20.2133 20.92C20.4133 20.92 20.5911 20.8422 20.7466 20.6867C20.9022 20.5311 20.98 20.3533 20.98 20.1533C20.98 19.9533 20.9133 19.7645 20.78 19.5867ZM2.51331 9.32001C2.51331 8.07557 2.82442 6.93112 3.44665 5.88668C4.06887 4.84224 4.9022 4.0089 5.94665 3.38668C6.99109 2.76446 8.13554 2.45335 9.37998 2.45335C10.6244 2.45335 11.7689 2.76446 12.8133 3.38668C13.8578 4.0089 14.6911 4.84224 15.3133 5.88668C15.9355 6.93112 16.2466 8.07557 16.2466 9.32001C16.2466 10.5645 15.9355 11.7089 15.3133 12.7533C14.6911 13.7978 13.8578 14.6311 12.8133 15.2533C11.7689 15.8756 10.6244 16.1867 9.37998 16.1867C8.13554 16.1867 6.99109 15.8756 5.94665 15.2533C4.9022 14.6311 4.06887 13.7978 3.44665 12.7533C2.82442 11.7089 2.51331 10.5645 2.51331 9.32001Z" fill="#1A1A1A"/>
</svg>
