<svg width="21" height="21" viewBox="0 0 21 21" fill="none" xmlns="http://www.w3.org/2000/svg">
<g clip-path="url(#clip0_3010_1207)">
<path d="M16.7369 18.8706H14.3369C14.2036 18.8706 14.0702 18.9372 13.9369 19.0706C13.8036 19.2039 13.7369 19.3483 13.7369 19.5039C13.7369 19.6594 13.8036 19.7928 13.9369 19.9039C14.0702 20.015 14.2036 20.0706 14.3369 20.0706H16.7369C16.9147 20.0706 17.0591 20.015 17.1702 19.9039C17.2814 19.7928 17.3369 19.6594 17.3369 19.5039C17.3369 19.3483 17.2814 19.2039 17.1702 19.0706C17.0591 18.9372 16.9147 18.8706 16.7369 18.8706ZM12.0036 18.8706H9.67024C9.49246 18.8706 9.34802 18.9372 9.23691 19.0706C9.1258 19.2039 9.07024 19.3483 9.07024 19.5039C9.07024 19.6594 9.1258 19.7928 9.23691 19.9039C9.34802 20.015 9.49246 20.0706 9.67024 20.0706H12.0036C12.1814 20.0706 12.3258 20.015 12.4369 19.9039C12.548 19.7928 12.6036 19.6594 12.6036 19.5039C12.6036 19.3483 12.548 19.2039 12.4369 19.0706C12.3258 18.9372 12.1814 18.8706 12.0036 18.8706ZM20.2702 8.27056C20.1369 8.27056 20.0036 8.32611 19.8702 8.43722C19.7369 8.54833 19.6702 8.69278 19.6702 8.87056V11.2039C19.6702 11.3817 19.7369 11.5261 19.8702 11.6372C20.0036 11.7483 20.148 11.8039 20.3036 11.8039C20.4591 11.8039 20.5925 11.7483 20.7036 11.6372C20.8147 11.5261 20.8702 11.3817 20.8702 11.2039V8.87056C20.8702 8.69278 20.8147 8.54833 20.7036 8.43722C20.5925 8.32611 20.448 8.27056 20.2702 8.27056ZM20.2702 12.9372C20.1369 12.9372 20.0036 13.0039 19.8702 13.1372C19.7369 13.2706 19.6702 13.4039 19.6702 13.5372V15.8706C19.6702 16.0483 19.7369 16.1928 19.8702 16.3039C20.0036 16.415 20.148 16.4706 20.3036 16.4706C20.4591 16.4706 20.5925 16.415 20.7036 16.3039C20.8147 16.1928 20.8702 16.0483 20.8702 15.8706V13.5372C20.8702 13.4039 20.8147 13.2706 20.7036 13.1372C20.5925 13.0039 20.448 12.9372 20.2702 12.9372ZM7.33691 18.8706H6.73691V18.3372C6.73691 18.1594 6.68135 18.015 6.57024 17.9039C6.45913 17.7928 6.31468 17.7372 6.13691 17.7372C5.95913 17.7372 5.81468 17.7928 5.70357 17.9039C5.59246 18.015 5.53691 18.1594 5.53691 18.3372V19.4706C5.53691 19.6483 5.59246 19.7928 5.70357 19.9039C5.81468 20.015 5.95913 20.0706 6.13691 20.0706H7.33691C7.47024 20.0706 7.59246 20.015 7.70357 19.9039C7.81468 19.7928 7.87024 19.6594 7.87024 19.5039C7.87024 19.3483 7.81468 19.2039 7.70357 19.0706C7.59246 18.9372 7.47024 18.8706 7.33691 18.8706ZM20.2702 4.73722H19.1369C18.9591 4.73722 18.8147 4.79278 18.7036 4.90389C18.5925 5.015 18.5369 5.15944 18.5369 5.33722C18.5369 5.515 18.5925 5.65944 18.7036 5.77056C18.8147 5.88167 18.9591 5.93722 19.1369 5.93722H19.6702V6.53722C19.6702 6.67056 19.7369 6.79278 19.8702 6.90389C20.0036 7.015 20.148 7.07056 20.3036 7.07056C20.4591 7.07056 20.5925 7.015 20.7036 6.90389C20.8147 6.79278 20.8702 6.67056 20.8702 6.53722V5.33722C20.8702 5.15944 20.8147 5.015 20.7036 4.90389C20.5925 4.79278 20.448 4.73722 20.2702 4.73722ZM20.2702 17.7372C20.1369 17.7372 20.0036 17.7928 19.8702 17.9039C19.7369 18.015 19.6702 18.1594 19.6702 18.3372V18.8706H19.1369C18.9591 18.8706 18.8147 18.9372 18.7036 19.0706C18.5925 19.2039 18.5369 19.3483 18.5369 19.5039C18.5369 19.6594 18.5925 19.7928 18.7036 19.9039C18.8147 20.015 18.9591 20.0706 19.1369 20.0706H20.2702C20.448 20.0706 20.5925 20.015 20.7036 19.9039C20.8147 19.7928 20.8702 19.6483 20.8702 19.4706V18.3372C20.8702 18.1594 20.8147 18.015 20.7036 17.9039C20.5925 17.7928 20.448 17.7372 20.2702 17.7372ZM16.7369 4.73722H16.1369V0.670555C16.1369 0.492779 16.0702 0.348333 15.9369 0.237223C15.8036 0.126112 15.6702 0.0705547 15.5369 0.0705547H1.47024C1.29246 0.0705547 1.14802 0.126112 1.03691 0.237223C0.925795 0.348333 0.870239 0.492779 0.870239 0.670555V14.7372C0.870239 14.8706 0.925795 15.0039 1.03691 15.1372C1.14802 15.2706 1.29246 15.3372 1.47024 15.3372H5.53691V15.8706C5.53691 16.0483 5.59246 16.1928 5.70357 16.3039C5.81468 16.415 5.95913 16.4706 6.13691 16.4706C6.31468 16.4706 6.45913 16.415 6.57024 16.3039C6.68135 16.1928 6.73691 16.0483 6.73691 15.8706V5.93722H16.7369C16.9147 5.93722 17.0591 5.88167 17.1702 5.77056C17.2814 5.65944 17.3369 5.515 17.3369 5.33722C17.3369 5.15944 17.2814 5.015 17.1702 4.90389C17.0591 4.79278 16.9147 4.73722 16.7369 4.73722ZM14.9369 4.73722H6.13691C5.95913 4.73722 5.81468 4.79278 5.70357 4.90389C5.59246 5.015 5.53691 5.15944 5.53691 5.33722V14.1372H2.07024V1.27056H14.9369V4.73722Z" fill="#1A1A1A"/>
</g>
<defs>
<clipPath id="clip0_3010_1207">
<rect width="20" height="20" fill="white" transform="matrix(1 0 0 -1 0.870239 20.0706)"/>
</clipPath>
</defs>
</svg>
