<svg width="17" height="17" viewBox="0 0 17 17" fill="none" xmlns="http://www.w3.org/2000/svg">
<path d="M13.0835 15.2099H11.1635C11.0568 15.2099 10.9501 15.2633 10.8435 15.3699C10.7368 15.4766 10.6835 15.5921 10.6835 15.7166C10.6835 15.841 10.7368 15.9477 10.8435 16.0366C10.9501 16.1255 11.0568 16.1699 11.1635 16.1699H13.0835C13.2257 16.1699 13.3412 16.1255 13.4301 16.0366C13.519 15.9477 13.5635 15.841 13.5635 15.7166C13.5635 15.5921 13.519 15.4766 13.4301 15.3699C13.3412 15.2633 13.2257 15.2099 13.0835 15.2099ZM9.2968 15.2099H7.43014C7.28791 15.2099 7.17236 15.2633 7.08347 15.3699C6.99458 15.4766 6.95014 15.5921 6.95014 15.7166C6.95014 15.841 6.99458 15.9477 7.08347 16.0366C7.17236 16.1255 7.28791 16.1699 7.43014 16.1699H9.2968C9.43903 16.1699 9.55458 16.1255 9.64347 16.0366C9.73236 15.9477 9.7768 15.841 9.7768 15.7166C9.7768 15.5921 9.73236 15.4766 9.64347 15.3699C9.55458 15.2633 9.43903 15.2099 9.2968 15.2099ZM15.9101 6.72992C15.8035 6.72992 15.6968 6.77437 15.5901 6.86325C15.4835 6.95214 15.4301 7.0677 15.4301 7.20992V9.07659C15.4301 9.21881 15.4835 9.33437 15.5901 9.42325C15.6968 9.51214 15.8124 9.55659 15.9368 9.55659C16.0612 9.55659 16.1679 9.51214 16.2568 9.42325C16.3457 9.33437 16.3901 9.21881 16.3901 9.07659V7.20992C16.3901 7.0677 16.3457 6.95214 16.2568 6.86325C16.1679 6.77437 16.0524 6.72992 15.9101 6.72992ZM15.9101 10.4633C15.8035 10.4633 15.6968 10.5166 15.5901 10.6233C15.4835 10.7299 15.4301 10.8366 15.4301 10.9433V12.8099C15.4301 12.9521 15.4835 13.0677 15.5901 13.1566C15.6968 13.2455 15.8124 13.2899 15.9368 13.2899C16.0612 13.2899 16.1679 13.2455 16.2568 13.1566C16.3457 13.0677 16.3901 12.9521 16.3901 12.8099V10.9433C16.3901 10.8366 16.3457 10.7299 16.2568 10.6233C16.1679 10.5166 16.0524 10.4633 15.9101 10.4633ZM5.56347 15.2099H5.08347V14.7833C5.08347 14.641 5.03903 14.5255 4.95014 14.4366C4.86125 14.3477 4.74569 14.3033 4.60347 14.3033C4.46125 14.3033 4.34569 14.3477 4.2568 14.4366C4.16791 14.5255 4.12347 14.641 4.12347 14.7833V15.6899C4.12347 15.8321 4.16791 15.9477 4.2568 16.0366C4.34569 16.1255 4.46125 16.1699 4.60347 16.1699H5.56347C5.67014 16.1699 5.76791 16.1255 5.8568 16.0366C5.94569 15.9477 5.99014 15.841 5.99014 15.7166C5.99014 15.5921 5.94569 15.4766 5.8568 15.3699C5.76791 15.2633 5.67014 15.2099 5.56347 15.2099ZM15.9101 3.90325H15.0035C14.8612 3.90325 14.7457 3.9477 14.6568 4.03659C14.5679 4.12548 14.5235 4.24103 14.5235 4.38326C14.5235 4.52548 14.5679 4.64103 14.6568 4.72992C14.7457 4.81881 14.8612 4.86325 15.0035 4.86325H15.4301V5.34326C15.4301 5.44992 15.4835 5.5477 15.5901 5.63659C15.6968 5.72548 15.8124 5.76992 15.9368 5.76992C16.0612 5.76992 16.1679 5.72548 16.2568 5.63659C16.3457 5.5477 16.3901 5.44992 16.3901 5.34326V4.38326C16.3901 4.24103 16.3457 4.12548 16.2568 4.03659C16.1679 3.9477 16.0524 3.90325 15.9101 3.90325ZM15.9101 14.3033C15.8035 14.3033 15.6968 14.3477 15.5901 14.4366C15.4835 14.5255 15.4301 14.641 15.4301 14.7833V15.2099H15.0035C14.8612 15.2099 14.7457 15.2633 14.6568 15.3699C14.5679 15.4766 14.5235 15.5921 14.5235 15.7166C14.5235 15.841 14.5679 15.9477 14.6568 16.0366C14.7457 16.1255 14.8612 16.1699 15.0035 16.1699H15.9101C16.0524 16.1699 16.1679 16.1255 16.2568 16.0366C16.3457 15.9477 16.3901 15.8321 16.3901 15.6899V14.7833C16.3901 14.641 16.3457 14.5255 16.2568 14.4366C16.1679 14.3477 16.0524 14.3033 15.9101 14.3033ZM13.0835 3.90325H12.6035V0.649921C12.6035 0.507699 12.5501 0.392143 12.4435 0.303255C12.3368 0.214366 12.2301 0.169922 12.1235 0.169922H0.870137C0.727915 0.169922 0.612359 0.214366 0.52347 0.303255C0.434581 0.392143 0.390137 0.507699 0.390137 0.649921V11.9033C0.390137 12.0099 0.434581 12.1166 0.52347 12.2233C0.612359 12.3299 0.727915 12.3833 0.870137 12.3833H4.12347V12.8099C4.12347 12.9521 4.16791 13.0677 4.2568 13.1566C4.34569 13.2455 4.46125 13.2899 4.60347 13.2899C4.74569 13.2899 4.86125 13.2455 4.95014 13.1566C5.03903 13.0677 5.08347 12.9521 5.08347 12.8099V4.86325H13.0835C13.2257 4.86325 13.3412 4.81881 13.4301 4.72992C13.519 4.64103 13.5635 4.52548 13.5635 4.38326C13.5635 4.24103 13.519 4.12548 13.4301 4.03659C13.3412 3.9477 13.2257 3.90325 13.0835 3.90325ZM11.6435 3.90325H4.60347C4.46125 3.90325 4.34569 3.9477 4.2568 4.03659C4.16791 4.12548 4.12347 4.24103 4.12347 4.38326V11.4233H1.35014V1.12992H11.6435V3.90325Z" fill="white"/>
</svg>
