<svg width="53" height="54" viewBox="0 0 53 54" fill="none" xmlns="http://www.w3.org/2000/svg">
<path d="M26.4635 53.7C25.6614 53.7 24.9261 53.5 24.2577 53.1L15.4347 47.9C11.6917 45.7666 8.65041 42.8333 6.31098 39.1C3.97155 35.3666 2.60131 31.3666 2.20027 27.1L0.997136 12.0999C0.863454 11.0333 1.06398 10.0666 1.5987 9.19995C2.13343 8.33328 2.86868 7.76662 3.80445 7.49995C5.27495 7.09995 6.61176 6.49995 7.8149 5.69995C9.28539 4.76662 10.6222 3.56662 11.8253 2.09995C12.6274 1.03328 13.7637 0.49995 15.2342 0.49995H37.6927C39.1632 0.49995 40.2995 1.03328 41.1016 2.09995C42.3047 3.56662 43.6416 4.76662 45.1121 5.69995C46.3152 6.49995 47.652 7.09995 49.1225 7.49995C50.0583 7.76662 50.7935 8.33328 51.3283 9.19995C51.863 10.0666 52.1303 10.9666 52.1303 11.9L50.7267 26.9C50.4593 31.3 49.1559 35.3333 46.8165 39C44.4771 42.6666 41.4358 45.6333 37.6927 47.9L28.8697 53.1C28.0677 53.5 27.2656 53.7 26.4635 53.7ZM15.2342 4.09995C14.9669 4.09995 14.7663 4.16662 14.6327 4.29995C13.2958 6.03328 11.7585 7.56662 10.0206 8.89995C8.55015 9.83328 6.94597 10.5 5.20811 10.9C4.80706 11.0333 4.60654 11.2999 4.60654 11.7L6.0102 26.7C6.27756 30.4333 7.41385 33.9 9.41908 37.1C11.4243 40.3 14.0311 42.8333 17.2394 44.7L26.0624 49.9C26.3298 50.0333 26.5972 50.0333 26.8645 49.9L35.6875 44.7C38.8959 42.8333 41.5027 40.3333 43.5079 37.2C45.5131 34.0666 46.6494 30.5666 46.9168 26.7L48.3204 11.7C48.3204 11.4333 48.1199 11.2333 47.7189 11.0999C45.981 10.7 44.3768 9.96662 42.9063 8.89995C41.1685 7.69995 39.6311 6.23328 38.2943 4.49995C38.1606 4.36662 37.9601 4.29995 37.6927 4.29995L15.2342 4.09995ZM24.6588 32.9C24.1241 32.9 23.6562 32.7 23.2551 32.3L18.2421 27.3C17.9747 27.0333 17.8744 26.6666 17.9413 26.2C18.0081 25.7333 18.2086 25.3333 18.5428 25C18.877 24.6666 19.2447 24.4666 19.6457 24.4C20.0468 24.3333 20.4478 24.4333 20.8489 24.7L24.6588 28.5L33.2812 19.7C33.6823 19.5666 34.0833 19.5 34.4844 19.5C34.8854 19.5 35.253 19.6666 35.5872 20C35.9215 20.3333 36.122 20.7 36.1888 21.0999C36.2557 21.5 36.1554 21.9 35.888 22.3L25.8619 32.3C25.5945 32.7 25.1935 32.9 24.6588 32.9Z" fill="#1A1A1A"/>
</svg>
