<svg width="14" height="12" viewBox="0 0 14 12" fill="none" xmlns="http://www.w3.org/2000/svg">
<path d="M0.8125 5.07485H12.0341L7.73716 0.982095C7.51216 0.767782 7.50344 0.411719 7.71775 0.186719C7.93178 -0.0379997 8.28784 -0.0469997 8.51312 0.167313L13.4204 4.84169C13.6327 5.05432 13.75 5.33669 13.75 5.63735C13.75 5.93772 13.6327 6.22038 13.4105 6.44229L8.51284 11.1071C8.404 11.2109 8.2645 11.2624 8.125 11.2624C7.9765 11.2624 7.828 11.2039 7.71747 11.0877C7.50316 10.8627 7.51188 10.5069 7.73688 10.2926L12.0518 6.19985H0.8125C0.502 6.19985 0.25 5.94785 0.25 5.63735C0.25 5.32685 0.502 5.07485 0.8125 5.07485Z" fill="white"/>
</svg>
