<svg width="60" height="60" viewBox="0 0 60 60" fill="none" xmlns="http://www.w3.org/2000/svg">
<path d="M58.8248 43.6999L57.0204 42.0999V35.0999C57.0204 33.8999 56.586 32.8666 55.7172 31.9999C54.8484 31.1332 53.846 30.6999 52.7099 30.6999C51.5738 30.6999 50.6048 31.0332 49.8028 31.6999C49.0009 32.3666 48.4662 33.2332 48.1989 34.2999L46.595 32.8999C45.793 32.0999 44.7906 31.6999 43.5877 31.6999C42.3847 31.6999 41.3154 32.0999 40.3798 32.8999L28.15 43.6999C27.8827 43.9666 27.749 44.2999 27.749 44.6999C27.749 45.0999 27.8493 45.4332 28.0498 45.6999C28.2502 45.9666 28.551 46.0999 28.952 46.0999C29.3529 46.0999 29.6871 46.0332 29.9544 45.8999V55.6999C29.9544 56.8999 30.3554 57.8999 31.1573 58.6999C31.9593 59.4999 32.8949 59.8999 33.9642 59.8999H53.0106C54.2136 59.8999 55.1826 59.4999 55.9177 58.6999C56.6528 57.8999 57.0204 56.8999 57.0204 55.6999V45.8999C57.4214 46.0332 57.789 46.0999 58.1231 46.0999C58.4572 46.0999 58.758 45.9332 59.0253 45.5999C59.2926 45.2666 59.3929 44.9332 59.326 44.5999C59.2592 44.2666 59.0921 43.9666 58.8248 43.6999ZM45.9935 57.0999H41.3823V53.6999C41.3823 53.1666 41.5828 52.6999 41.9837 52.2999C42.3847 51.8999 42.8525 51.6999 43.3872 51.6999H43.9886C44.5233 51.6999 44.9911 51.8999 45.3921 52.2999C45.793 52.6999 45.9935 53.1666 45.9935 53.6999V57.0999ZM54.2136 55.6999C54.2136 56.0999 54.1133 56.4332 53.9128 56.6999C53.7123 56.9666 53.4116 57.0999 53.0106 57.0999H48.8004V53.6999C48.8004 52.3666 48.3326 51.2332 47.3969 50.2999C46.4613 49.3666 45.3252 48.8999 43.9886 48.8999H43.3872C42.0506 48.8999 40.9145 49.3666 39.9788 50.2999C39.0432 51.2332 38.5754 52.3666 38.5754 53.6999V57.0999H33.9642C33.6969 57.0999 33.4295 56.9666 33.1622 56.6999C32.8949 56.4332 32.7612 56.0999 32.7612 55.6999V43.2999L42.1842 35.0999C42.5852 34.6999 43.0196 34.4999 43.4874 34.4999C43.9552 34.4999 44.3896 34.6999 44.7906 35.0999L54.2136 43.2999V55.6999ZM54.2136 35.0999V39.6999L51.0057 36.6999V35.0999C51.0057 34.6999 51.1394 34.3332 51.4067 33.9999C51.674 33.6666 52.0416 33.4666 52.5094 33.3999C52.9772 33.3332 53.3782 33.4666 53.7123 33.7999C54.0465 34.1332 54.2136 34.5666 54.2136 35.0999ZM43.5877 37.8999C42.3847 37.8999 41.3823 38.3332 40.5803 39.1999C39.7784 40.0666 39.3774 41.0666 39.3774 42.1999C39.3774 43.3332 39.7784 44.2999 40.5803 45.0999C41.3823 45.8999 42.3513 46.2999 43.4874 46.2999C44.6235 46.2999 45.626 45.8999 46.4947 45.0999C47.3635 44.2999 47.7979 43.3332 47.7979 42.1999C47.7979 41.0666 47.3635 40.0666 46.4947 39.1999C45.626 38.3332 44.6569 37.8999 43.5877 37.8999ZM44.7906 42.0999C44.7906 42.4999 44.6903 42.8332 44.4898 43.0999C44.2894 43.3666 43.9886 43.4999 43.5877 43.4999C43.1867 43.4999 42.8525 43.3666 42.5852 43.0999C42.3179 42.8332 42.1842 42.4999 42.1842 42.0999C42.1842 41.6999 42.3179 41.3666 42.5852 41.0999C42.8525 40.8332 43.1867 40.6999 43.5877 40.6999C43.9886 40.6999 44.2894 40.8332 44.4898 41.0999C44.6903 41.3666 44.7906 41.6999 44.7906 42.0999ZM25.3432 56.8999H7.49963C6.2967 56.8999 5.22743 56.4666 4.29181 55.5999C3.3562 54.7332 2.88839 53.6999 2.88839 52.4999V8.0999C2.88839 6.8999 3.3562 5.83324 4.29181 4.8999C5.22743 3.96657 6.2967 3.4999 7.49963 3.4999H48.1989C49.5355 3.4999 50.6382 3.96657 51.507 4.8999C52.3757 5.83324 52.8101 6.8999 52.8101 8.0999V25.8999C52.8101 26.2999 52.9438 26.6332 53.2111 26.8999C53.4784 27.1666 53.8126 27.2999 54.2136 27.2999C54.6145 27.2999 54.9487 27.1666 55.216 26.8999C55.4833 26.6332 55.617 26.2999 55.617 25.8999V8.0999C55.617 6.0999 54.8819 4.36657 53.4116 2.8999C51.9414 1.43324 50.2038 0.699902 48.1989 0.699902H7.49963C5.49475 0.699902 3.75717 1.43324 2.28692 2.8999C0.816669 4.36657 0.081543 6.0999 0.081543 8.0999V52.4999C0.081543 54.4999 0.816669 56.2332 2.28692 57.6999C3.75717 59.1666 5.49475 59.8999 7.49963 59.8999H25.3432C25.7441 59.8999 26.1117 59.7332 26.4458 59.3999C26.78 59.0666 26.9471 58.7332 26.9471 58.3999C26.9471 58.0666 26.78 57.7332 26.4458 57.3999C26.1117 57.0666 25.7441 56.8999 25.3432 56.8999ZM42.7857 14.8999C42.7857 14.4999 42.652 14.1666 42.3847 13.8999C42.1174 13.6332 41.7832 13.4999 41.3823 13.4999H13.5143C13.1133 13.4999 12.7792 13.6332 12.5119 13.8999C12.2445 14.1666 12.1109 14.4999 12.1109 14.8999C12.1109 15.2999 12.2445 15.6332 12.5119 15.8999C12.7792 16.1666 13.1133 16.2999 13.5143 16.2999H41.3823C41.7832 16.2999 42.1174 16.1666 42.3847 15.8999C42.652 15.6332 42.7857 15.2999 42.7857 14.8999ZM35.9691 25.6999C35.9691 25.4332 35.8354 25.1332 35.5681 24.7999C35.3008 24.4666 34.9666 24.2999 34.5656 24.2999H13.5143C13.1133 24.2999 12.7792 24.4666 12.5119 24.7999C12.2445 25.1332 12.1109 25.4666 12.1109 25.7999C12.1109 26.1332 12.2445 26.4666 12.5119 26.7999C12.7792 27.1332 13.1133 27.2999 13.5143 27.2999H34.5656C34.9666 27.2999 35.3008 27.1332 35.5681 26.7999C35.8354 26.4666 35.9691 26.0999 35.9691 25.6999ZM13.5143 35.2999C13.1133 35.2999 12.7792 35.4332 12.5119 35.6999C12.2445 35.9666 12.1109 36.2999 12.1109 36.6999C12.1109 37.0999 12.2445 37.4332 12.5119 37.6999C12.7792 37.9666 13.1133 38.0999 13.5143 38.0999H22.1353C22.4026 38.0999 22.7034 37.9666 23.0375 37.6999C23.3717 37.4332 23.5388 37.0999 23.5388 36.6999C23.5388 36.2999 23.3717 35.9666 23.0375 35.6999C22.7034 35.4332 22.4026 35.2999 22.1353 35.2999H13.5143Z" fill="#1A1A1A"/>
</svg>
