<svg width="16" height="13" viewBox="0 0 16 13" fill="none" xmlns="http://www.w3.org/2000/svg">
<path d="M13.7631 3.32812C13.7631 3.47461 13.7631 3.5918 13.7631 3.73828C13.7631 7.81055 10.6869 12.4688 5.03261 12.4688C3.2748 12.4688 1.66347 11.9707 0.315814 11.0918C0.550189 11.1211 0.784564 11.1504 1.04824 11.1504C2.48378 11.1504 3.80214 10.6523 4.85683 9.83203C3.50917 9.80273 2.3666 8.92383 1.98574 7.69336C2.19081 7.72266 2.3666 7.75195 2.57167 7.75195C2.83535 7.75195 3.12831 7.69336 3.36269 7.63477C1.95644 7.3418 0.901752 6.11133 0.901752 4.61719V4.58789C1.31191 4.82227 1.80996 4.93945 2.308 4.96875C1.45839 4.41211 0.931049 3.47461 0.931049 2.41992C0.931049 1.83398 1.07753 1.30664 1.34121 0.867188C2.86464 2.71289 5.1498 3.94336 7.69863 4.08984C7.64003 3.85547 7.61074 3.62109 7.61074 3.38672C7.61074 1.6875 8.98769 0.310547 10.6869 0.310547C11.5658 0.310547 12.3568 0.662109 12.9428 1.27734C13.6166 1.13086 14.2904 0.867188 14.8764 0.515625C14.642 1.24805 14.1732 1.83398 13.5287 2.21484C14.1439 2.15625 14.7592 1.98047 15.2865 1.74609C14.8764 2.36133 14.349 2.88867 13.7631 3.32812Z" fill="white"/>
<a href="https://www.figma.com/design/ul8jEv9u9rd9ObsGq7HY8f/justHome-example-1?node-id=2-2">
<rect fill="black" fill-opacity="0" x="-0.744" y="-1.125" width="15" height="17.25"/>
</a>
</svg>
